<svg width="32" height="32" viewBox="0 0 32 32" fill="none" xmlns="http://www.w3.org/2000/svg">
  <defs>
    <linearGradient id="faviconGradient" x1="0%" y1="0%" x2="100%" y2="100%">
      <stop offset="0%" style="stop-color:#6366f1;stop-opacity:1" />
      <stop offset="100%" style="stop-color:#8b5cf6;stop-opacity:1" />
    </linearGradient>
  </defs>

  <!-- Background -->
  <rect width="32" height="32" rx="6" fill="url(#faviconGradient)"/>

  <!-- Central node -->
  <circle cx="16" cy="16" r="2.5" fill="white" opacity="0.95"/>

  <!-- Neural network nodes -->
  <circle cx="11" cy="10" r="1.5" fill="white" opacity="0.8"/>
  <circle cx="16" cy="8" r="1.5" fill="white" opacity="0.8"/>
  <circle cx="21" cy="10" r="1.5" fill="white" opacity="0.8"/>
  <circle cx="11" cy="22" r="1.5" fill="white" opacity="0.8"/>
  <circle cx="16" cy="24" r="1.5" fill="white" opacity="0.8"/>
  <circle cx="21" cy="22" r="1.5" fill="white" opacity="0.8"/>
  <circle cx="8" cy="16" r="1.5" fill="white" opacity="0.8"/>
  <circle cx="24" cy="16" r="1.5" fill="white" opacity="0.8"/>

  <!-- Connection lines -->
  <line x1="16" y1="16" x2="11" y2="10" stroke="white" stroke-width="1" opacity="0.5"/>
  <line x1="16" y1="16" x2="16" y2="8" stroke="white" stroke-width="1" opacity="0.5"/>
  <line x1="16" y1="16" x2="21" y2="10" stroke="white" stroke-width="1" opacity="0.5"/>
  <line x1="16" y1="16" x2="11" y2="22" stroke="white" stroke-width="1" opacity="0.5"/>
  <line x1="16" y1="16" x2="16" y2="24" stroke="white" stroke-width="1" opacity="0.5"/>
  <line x1="16" y1="16" x2="21" y2="22" stroke="white" stroke-width="1" opacity="0.5"/>
  <line x1="16" y1="16" x2="8" y2="16" stroke="white" stroke-width="1" opacity="0.5"/>
  <line x1="16" y1="16" x2="24" y2="16" stroke="white" stroke-width="1" opacity="0.5"/>
</svg>
