<svg xmlns="http://www.w3.org/2000/svg" viewBox="0 0 100 100">
  <defs>
    <linearGradient id="grad" x1="0%" y1="0%" x2="100%" y2="100%">
      <stop offset="0%" style="stop-color:#8B5CF6;stop-opacity:1" />
      <stop offset="100%" style="stop-color:#D946EF;stop-opacity:1" />
    </linearGradient>
  </defs>
  <rect width="100" height="100" rx="20" fill="url(#grad)"/>
  <path d="M50 25 C45 25 40 28 38 33 C36 30 33 28 29 28 C24 28 20 32 20 37 C20 42 22 46 25 49 L25 55 C25 62 30 67 37 68 L37 72 C37 74 39 76 41 76 L59 76 C61 76 63 74 63 72 L63 68 C70 67 75 62 75 55 L75 49 C78 46 80 42 80 37 C80 32 76 28 71 28 C67 28 64 30 62 33 C60 28 55 25 50 25 Z M35 45 C33 45 31 43 31 41 C31 39 33 37 35 37 C37 37 39 39 39 41 C39 43 37 45 35 45 Z M65 45 C63 45 61 43 61 41 C61 39 63 37 65 37 C67 37 69 39 69 41 C69 43 67 45 65 45 Z M42 58 C42 58 46 62 50 62 C54 62 58 58 58 58"
        fill="none"
        stroke="white"
        stroke-width="2.5"
        stroke-linecap="round"/>
  <circle cx="35" cy="41" r="2" fill="white"/>
  <circle cx="65" cy="41" r="2" fill="white"/>
</svg>
