<svg width="64" height="64" viewBox="0 0 64 64" fill="none" xmlns="http://www.w3.org/2000/svg">
  <defs>
    <linearGradient id="iconGradient" x1="0%" y1="0%" x2="100%" y2="100%">
      <stop offset="0%" style="stop-color:#6366f1;stop-opacity:1" />
      <stop offset="100%" style="stop-color:#8b5cf6;stop-opacity:1" />
    </linearGradient>
  </defs>

  <!-- Rounded square background -->
  <rect width="64" height="64" rx="12" fill="url(#iconGradient)"/>

  <!-- Central AI node -->
  <circle cx="32" cy="32" r="5" fill="white" opacity="0.95"/>

  <!-- Neural network connections -->
  <!-- Top nodes -->
  <circle cx="22" cy="20" r="3" fill="white" opacity="0.8"/>
  <circle cx="32" cy="16" r="3" fill="white" opacity="0.8"/>
  <circle cx="42" cy="20" r="3" fill="white" opacity="0.8"/>

  <!-- Bottom nodes -->
  <circle cx="22" cy="44" r="3" fill="white" opacity="0.8"/>
  <circle cx="32" cy="48" r="3" fill="white" opacity="0.8"/>
  <circle cx="42" cy="44" r="3" fill="white" opacity="0.8"/>

  <!-- Side nodes -->
  <circle cx="16" cy="32" r="3" fill="white" opacity="0.8"/>
  <circle cx="48" cy="32" r="3" fill="white" opacity="0.8"/>

  <!-- Connection lines -->
  <line x1="32" y1="32" x2="22" y2="20" stroke="white" stroke-width="1.5" opacity="0.5"/>
  <line x1="32" y1="32" x2="32" y2="16" stroke="white" stroke-width="1.5" opacity="0.5"/>
  <line x1="32" y1="32" x2="42" y2="20" stroke="white" stroke-width="1.5" opacity="0.5"/>
  <line x1="32" y1="32" x2="22" y2="44" stroke="white" stroke-width="1.5" opacity="0.5"/>
  <line x1="32" y1="32" x2="32" y2="48" stroke="white" stroke-width="1.5" opacity="0.5"/>
  <line x1="32" y1="32" x2="42" y2="44" stroke="white" stroke-width="1.5" opacity="0.5"/>
  <line x1="32" y1="32" x2="16" y2="32" stroke="white" stroke-width="1.5" opacity="0.5"/>
  <line x1="32" y1="32" x2="48" y2="32" stroke="white" stroke-width="1.5" opacity="0.5"/>
</svg>
